<svg xmlns="http://www.w3.org/2000/svg" width="21" height="20" viewBox="0 0 21 20" fill="none">
<g clip-path="url(#clip0_5603_945)">
<path d="M0.828318 9.35231C1.6667 9.47548 2.476 9.61343 3.29015 9.7169C4.38053 9.84993 5.46607 9.98788 6.5613 10.0618C7.87944 10.1505 9.20244 10.2145 10.5254 10.2195C12.6287 10.2293 14.7173 10.0618 16.7576 9.5149C16.9563 9.4607 17.1549 9.39172 17.3439 9.30304C16.9708 9.35231 16.5976 9.42621 16.2245 9.45084C15.1002 9.52475 13.9759 9.59865 12.8516 9.63314C11.1264 9.68734 9.40113 9.59865 7.67591 9.48041C5.58722 9.3326 3.50338 9.1503 1.44378 8.75122C1.24509 8.7118 1.04639 8.6576 0.852548 8.60341C0.765318 8.57877 0.682934 8.5295 0.595703 8.49009C0.595703 8.47038 0.595703 8.44574 0.595703 8.42604C0.682934 8.4014 0.77501 8.36199 0.867087 8.34721C1.68608 8.23881 2.50993 8.15013 3.32892 8.02695C4.83607 7.80524 6.32384 7.47021 7.79221 7.06127C7.92306 7.02678 8.0006 7.04156 8.09752 7.14996C8.59667 7.73134 9.25575 8.03188 9.97782 8.17969C11.3638 8.46545 12.5657 8.11071 13.5397 7.04649C13.6221 6.9578 13.6851 6.85434 13.7627 6.7558C14.194 6.89375 14.6253 7.04156 15.0614 7.17459C16.3796 7.56875 17.7268 7.82495 19.0886 8.02203C19.3163 8.05652 19.5489 8.11564 19.767 8.19447C20.3243 8.4014 20.6151 8.79063 20.5957 9.38679C20.5812 9.82529 20.5182 10.2736 20.4164 10.7023C19.8591 13.0377 19.4908 15.4026 19.0886 17.7676C19.0692 17.8957 19.0401 18.0188 19.0207 18.1469C18.9432 18.615 18.6621 18.8761 18.2114 18.95C17.6299 19.0436 17.0483 19.1372 16.4668 19.2062C13.7336 19.5265 10.9955 19.5117 8.25744 19.3097C6.17361 19.152 4.10915 18.881 2.05439 18.482C1.89447 18.4524 1.82662 18.3982 1.82178 18.2208C1.74908 16.4028 1.58916 14.5897 1.34685 12.7815C1.20147 11.7074 1.02216 10.6382 0.857394 9.56909C0.857394 9.50011 0.842856 9.43114 0.828318 9.35231ZM1.78301 15.0528C1.8557 16.0136 1.92839 16.9398 1.99624 17.871C2.06408 17.8858 2.13193 17.9006 2.19493 17.9055C4.50169 18.1962 6.81814 18.4228 9.14429 18.5066C11.3493 18.5904 13.5543 18.5657 15.7544 18.3194C16.3214 18.2553 16.525 18.0779 16.6413 17.5409C16.7382 17.0876 16.8351 16.6393 16.9369 16.1909C17.0726 15.5898 16.8787 15.378 16.2681 15.442C15.2262 15.5455 14.1794 15.6687 13.1327 15.713C9.72582 15.8559 6.33837 15.6046 2.96062 15.2006C2.57777 15.1513 2.19008 15.1021 1.78301 15.0528ZM1.36139 11.5251C1.36139 11.5744 1.35655 11.599 1.36139 11.6236C1.45832 12.3775 1.55524 13.1313 1.64247 13.89C1.65701 14.0083 1.70547 14.0378 1.81208 14.0526C3.673 14.2349 5.53392 14.4566 7.39483 14.6044C10.0554 14.8114 12.7159 14.8262 15.3716 14.5552C15.7738 14.5158 16.176 14.4271 16.5734 14.3384C16.8109 14.2842 17.0435 14.1462 17.1162 13.8999C17.2809 13.3481 17.4215 12.7913 17.5426 12.2247C17.5863 12.0178 17.4699 11.9094 17.2519 11.8946C17.0919 11.8848 16.9272 11.8897 16.7673 11.9143C15.546 12.1065 14.3151 12.2099 13.0793 12.2543C9.57075 12.3824 6.08153 12.1213 2.602 11.6877C2.19977 11.6335 1.7927 11.5793 1.36139 11.5251Z" fill="#2a3e72"/>
<path d="M12.4492 4.14452C11.9888 4.11496 11.6738 3.85383 11.3298 3.64197C11.2377 3.58285 11.2134 3.51387 11.2134 3.40548C11.2086 3.11479 11.2134 2.81917 11.1601 2.5334C11.0341 1.87319 10.6174 1.4544 10.0116 1.21791C9.45915 1.00112 8.87761 0.961705 8.29608 1.00112C8.17977 1.01097 8.06346 1.06024 7.95685 1.11444C7.82115 1.18342 7.72908 1.12922 7.70485 1.01097C7.67577 0.843458 7.68062 0.666087 7.69515 0.493644C7.7 0.454228 7.79208 0.390178 7.84054 0.395105C8.35907 0.429593 8.88246 0.449301 9.3913 0.53306C9.75961 0.592183 10.1328 0.705503 10.4671 0.868093C11.2522 1.2524 11.6351 1.93232 11.7223 2.79946C11.7417 3.0261 11.7514 3.25767 11.7659 3.47445C12.0082 3.48923 12.2214 3.48923 12.4347 3.52372C13.2149 3.65182 13.622 4.20857 13.5299 5.00674C13.3991 6.13008 12.5413 7.17953 11.4994 7.47514C9.96799 7.90379 8.29123 6.9184 8.17492 5.00181C8.10708 3.88339 8.97453 3.19362 10.0746 3.46953C10.3654 3.54343 10.6368 3.69617 10.9081 3.83412C11.1795 3.97208 11.4315 4.15437 11.7078 4.2874C11.9452 4.41057 12.1972 4.37609 12.4492 4.14452Z" fill="#2a3e72"/>
</g>
<defs>
<clipPath id="clip0_5603_945">
<rect width="20" height="19.0476" fill="white" transform="translate(0.599609 0.400024)"/>
</clipPath>
</defs>
</svg>
