<svg xmlns="http://www.w3.org/2000/svg" width="21" height="16" viewBox="0 0 21 16" fill="none">
<g clip-path="url(#clip0_5603_930)">
<path d="M20.4004 2.83808C20.4004 2.70366 20.4004 2.57287 20.4004 2.43845C20.373 2.31493 20.3535 2.19141 20.3145 2.07152C20.1348 1.48662 19.8066 1.01797 19.1309 0.865381C18.9082 0.81452 18.666 0.803621 18.4355 0.803621C13.0801 0.799988 7.72461 0.799988 2.36914 0.799988C2.25195 0.799988 2.13477 0.799988 2.01758 0.810887C1.66602 0.83995 1.35352 0.963471 1.07617 1.17055C0.697266 1.45392 0.494141 1.82448 0.396484 2.2568C0.396484 2.40212 0.396484 2.54744 0.396484 2.69276C0.474609 3.05969 0.568359 3.42298 0.767578 3.75358C1.17383 4.42205 1.74414 4.94156 2.41602 5.37388C4.40039 6.65995 6.38477 7.94965 8.37305 9.23208C8.70898 9.45006 9.06055 9.64624 9.41602 9.83515C10.0684 10.1803 10.7324 10.1766 11.3848 9.83152C11.6738 9.67893 11.9629 9.52635 12.2363 9.35197C14.3066 8.01867 16.377 6.68538 18.4277 5.33028C19.373 4.70542 20.1465 3.94613 20.4004 2.83808Z" fill="#2a3e72"/>
<path d="M20.4004 5.52649C19.1855 6.62364 17.6934 7.36113 16.3418 8.2839C16.0449 8.48735 15.7324 8.67626 15.416 8.87608C15.4512 8.91604 15.4785 8.94874 15.5059 8.9778C17.1152 10.4746 18.7207 11.9677 20.3262 13.4609C20.3496 13.4827 20.377 13.5008 20.4004 13.519C20.4004 10.856 20.4004 8.18945 20.4004 5.52649Z" fill="#2a3e72"/>
<path d="M0.400382 13.519C0.458975 13.4681 0.517569 13.4209 0.572257 13.37C2.12695 11.9241 3.68554 10.4782 5.24023 9.02866C5.28711 8.98507 5.33008 8.94147 5.38477 8.88698C5.32227 8.84338 5.26758 8.80342 5.21289 8.76709C4.10351 8.05866 2.98242 7.36477 1.88476 6.63818C1.36913 6.29668 0.896476 5.89705 0.400382 5.52286C0.400382 8.18945 0.400382 10.856 0.400382 13.519Z" fill="#2a3e72"/>
<path d="M6.69336 9.74072C4.80273 11.4991 2.92383 13.2465 1.0332 15.0049C1.29492 15.2374 1.61914 15.3609 1.98242 15.4009C2.08398 15.4118 2.18945 15.4118 2.29492 15.4118C7.69727 15.4118 13.0996 15.4118 18.502 15.4154C18.9746 15.4154 19.4004 15.3137 19.7441 15.0303C17.8574 13.2756 15.9746 11.5245 14.0801 9.76252C13.6738 10.0314 13.248 10.3256 12.8066 10.6017C12.2598 10.9469 11.6699 11.2121 11.0254 11.3574C10.3535 11.51 9.7168 11.3865 9.08398 11.143C8.33398 10.856 7.70117 10.4019 7.04883 9.97323C6.92773 9.90057 6.81445 9.82065 6.69336 9.74072Z" fill="#2a3e72"/>
</g>
<defs>
<clipPath id="clip0_5603_930">
<rect width="20" height="14.6154" fill="white" transform="matrix(-1 0 0 1 20.4004 0.799988)"/>
</clipPath>
</defs>
</svg>
