<svg xmlns="http://www.w3.org/2000/svg" width="17" height="17" viewBox="0 0 17 17" fill="none">
<path d="M2.9984 0.199959C3.60996 0.199959 4.21553 0.193958 4.82709 0.199959C5.45065 0.205957 5.7984 0.529958 5.8044 1.15996C5.81639 2.32996 5.81039 3.49996 5.7984 4.66996C5.7984 4.78995 5.72046 4.93996 5.63652 5.02996C4.959 5.71996 4.27549 6.40995 3.57998 7.08195C3.38213 7.26795 3.34615 7.44795 3.47806 7.65796C3.75986 8.11395 4.01767 8.59395 4.35343 9.01395C5.56457 10.55 6.94358 11.924 8.51446 13.1C8.83823 13.346 9.20996 13.532 9.56371 13.736C9.76756 13.85 9.93544 13.814 10.1153 13.628C10.7808 12.938 11.4644 12.26 12.1479 11.594C12.2558 11.492 12.4357 11.408 12.5856 11.402C13.7067 11.384 14.822 11.39 15.9432 11.396C16.6866 11.396 16.9984 11.72 16.9984 12.458C16.9984 13.628 16.9984 14.798 16.9984 15.968C16.9984 16.658 16.6626 17 15.9671 16.994C14.822 16.988 13.6708 17.066 12.5376 16.796C10.517 16.316 8.7363 15.344 7.09347 14.114C4.70118 12.32 2.72859 10.154 1.37956 7.46595C0.594118 5.90596 0.156431 4.26196 0.216388 2.49796C0.228379 2.05996 0.216388 1.61596 0.222384 1.17796C0.216388 0.541958 0.558144 0.205957 1.19969 0.199959C1.79926 0.193958 2.39883 0.199959 2.9984 0.199959Z" fill="#2a3e72"/>
</svg>
