<svg xmlns="http://www.w3.org/2000/svg" width="45" height="30" viewBox="0 0 45 30" fill="none">
<path d="M26.1445 26.3519C30.0807 24.7319 32.6917 22.1253 33.3901 18.1244C32.2485 17.6948 31.1493 17.4088 30.1857 16.8957C27.337 15.3783 25.6254 13.0755 25.2537 9.98724C24.5787 4.37317 28.7249 0.697964 33.5781 0.08634C38.2375 -0.500652 42.8181 1.91847 44.3503 6.98386C45.4787 10.7179 45.0895 14.4068 43.5529 17.9671C40.7815 24.3912 35.692 28.3044 28.5674 29.9546C28.0703 30.0695 27.8414 29.9669 27.6417 29.5044C27.2116 28.5083 26.6955 27.5464 26.2173 26.5695C26.1955 26.5243 26.1853 26.4737 26.1459 26.3519H26.1445Z" fill="#2a3e72"/>
<path d="M1.02469 26.3322C4.93324 24.7231 7.52388 22.1111 8.25864 18.0021C7.94812 17.9323 7.68716 17.8858 7.43057 17.8147C3.4156 16.7132 0.87599 14.2845 0.151428 10.3835C-0.804934 5.2292 2.89077 0.724808 8.42046 0.0803471C13.5259 -0.514856 18.073 2.37496 19.3574 7.58675C20.4129 11.8736 19.6286 15.9442 17.5088 19.7932C14.4969 25.265 9.66694 28.5502 3.33542 29.965C2.90243 30.0622 2.68958 29.965 2.51172 29.571C2.04374 28.5338 1.52328 27.5185 1.02615 26.4937C1.01303 26.4663 1.02469 26.4267 1.02469 26.3336V26.3322Z" fill="#2a3e72"/>
</svg>
