<svg xmlns="http://www.w3.org/2000/svg" width="45" height="30" viewBox="0 0 45 30" fill="none">
<path d="M18.8555 3.6481C14.9193 5.26814 12.3083 7.87472 11.6099 11.8756C12.7515 12.3052 13.8507 12.5912 14.8143 13.1043C17.663 14.6217 19.3746 16.9245 19.7463 20.0128C20.4213 25.6268 16.2751 29.302 11.4219 29.9137C6.76253 30.5007 2.1819 28.0815 0.649683 23.0161C-0.478707 19.2821 -0.0894562 15.5932 1.44714 12.0329C4.21855 5.60885 9.30797 1.69556 16.4326 0.0454059C16.9297 -0.0695299 17.1586 0.0330913 17.3583 0.495571C17.7884 1.49168 18.3045 2.45358 18.7827 3.43054C18.8045 3.47569 18.8147 3.52632 18.8541 3.6481H18.8555Z" fill="#2a3e72"/>
<path d="M43.9753 3.66776C40.0668 5.27686 37.4761 7.88892 36.7414 11.9979C37.0519 12.0677 37.3128 12.1142 37.5694 12.1853C41.5844 13.2868 44.124 15.7155 44.8486 19.6165C45.8049 24.7708 42.1092 29.2752 36.5795 29.9197C31.4741 30.5149 26.927 27.625 25.6426 22.4132C24.5871 18.1264 25.3714 14.0558 27.4912 10.2068C30.5031 4.73502 35.3331 1.44977 41.6646 0.0349677C42.0976 -0.0621805 42.3104 0.0349677 42.4883 0.429033C42.9563 1.46619 43.4767 2.48146 43.9739 3.5063C43.987 3.53367 43.9753 3.57335 43.9753 3.66639V3.66776Z" fill="#2a3e72"/>
</svg>
